<?xml version="1.0" encoding="UTF-8"?>
<svg id="_レイヤー_2" data-name="レイヤー 2" xmlns="http://www.w3.org/2000/svg" width="79.47mm" height="17.73mm" viewBox="0 0 225.26 50.25">
  <defs>
    <style>
      .cls-1 {
        fill: #fff;
      }
    </style>
  </defs>
  <g id="_レイヤー_2-2" data-name="レイヤー 2">
    <g>
      <path class="cls-1" d="M0,50.03v-.28c0-.14.09-.21.28-.21,5.6-.07,7.99-2.25,7.99-7.02V8.84C8.26,4.07,5.88,1.89.28,1.82c-.18,0-.28-.07-.28-.21v-.28c0-.14.09-.21.28-.21h15.33v7.02h-6.43v34.39c0,4.77,2.39,6.95,7.99,7.02.18,0,.28.07.28.21v.28c0,.14-.09.21-.28.21H.28c-.18,0-.28-.07-.28-.21ZM15.61,8.14h6.43v7.02h-6.43v-7.02ZM22.04,15.16h6.43v7.02h-6.43v-7.02ZM28.47,22.17h6.43v7.02h-6.43v-7.02ZM58.77,0c9.64,0,17.45,5.96,17.45,13.33v36.91h-6.43V13.33c0-4.63-4.96-8.42-11.02-8.42s-11.02,3.79-11.02,8.42v29.89h-6.43v-7.02h-6.43v-7.02h6.43v-15.86c0-7.37,7.81-13.33,17.45-13.33Z"/>
      <path class="cls-1" d="M75.58,1.82c-.18,0-.28-.07-.28-.21v-.28c0-.14.09-.21.28-.21h22.41c.18,0,.28.07.28.21v.28c0,.14-.09.21-.28.21-5.6.07-7.99,2.25-7.99,7.02v33.68c0,4.77,2.39,6.95,7.99,7.02.18,0,.28.07.28.21v.28c0,.14-.09.21-.28.21h-22.41c-.18,0-.28-.07-.28-.21v-.28c0-.14.09-.21.28-.21,5.6-.07,7.99-2.25,7.99-7.02V8.84c0-4.77-2.39-6.95-7.99-7.02Z"/>
      <path class="cls-1" d="M119.84,50.25l-15.61-41.68c-1.65-4.63-4.68-6.67-9.18-6.74-.09,0-.18-.07-.18-.21v-.28c0-.14.09-.21.18-.21h20.85c.18,0,.28.07.28.21v.28c0,.14-.09.21-.28.21-5.6.07-6.89,2.11-5.23,6.74l13.77,36.77,13.77-36.77c1.65-4.63.37-6.67-5.23-6.74-.18,0-.28-.07-.28-.21v-.28c0-.14.09-.21.28-.21h20.84c11.57,0,19.74,5.68,19.74,13.68s-7.71,13.4-18.82,13.68v.7h-6.43v-1.33c-6.43-1.61-11.29-5.89-12.21-11.16l-12.58,33.54h-3.67ZM148.31,1.82c-4.5.07-7.53,2.11-9.18,6.74l-2.39,6.39c.09,5.61,4.96,10.39,11.57,12.14v-4.91h6.43v5.61c7.35-.42,12.4-5.61,12.4-12.98s-5.51-12.98-13.31-12.98h-5.51ZM154.73,29.19h6.43v7.02h-6.43v-7.02ZM161.16,36.21h6.43v7.02h-6.43v-7.02ZM167.59,43.23h6.43v7.02h-6.43v-7.02Z"/>
      <path class="cls-1" d="M189.54,1.82c-.18,0-.28-.07-.28-.21v-.28c0-.14.09-.21.28-.21h11.66l14.78,41.68c1.65,4.56,4.59,6.67,9.09,6.74.09,0,.18.07.18.21v.28c0,.14-.09.21-.18.21h-20.84c-.18,0-.28-.07-.28-.21v-.28c0-.14.09-.21.28-.21,5.6-.07,6.98-2.17,5.33-6.74l-6.89-19.44c-7.71,1.61-14.6,7.58-20.29,19.51-1.93,4.56-.73,6.6,4.87,6.67.18,0,.28.07.28.21v.28c0,.14-.09.21-.28.21h-15.43c-.09,0-.18-.07-.18-.21v-.28c0-.14.09-.21.18-.21,4.5-.07,7.53-2.1,9.37-6.67l13.41-34.39c1.84-4.56.55-6.6-5.05-6.67ZM202.4,22.67l-5.88-16.63-12.67,32.21c5.51-9.54,11.75-14.18,18.55-15.58Z"/>
    </g>
  </g>
</svg>