<?xml version="1.0" encoding="UTF-8"?>
<svg id="_レイヤー_2" data-name="レイヤー 2" xmlns="http://www.w3.org/2000/svg" width="335.22" height="56.92" viewBox="0 0 335.22 56.92">
  <defs>
    <style>
      .cls-1 {
        fill: #fff;
      }
    </style>
  </defs>
  <g id="_レイヤー_1-2" data-name="レイヤー 1">
    <g>
      <path class="cls-1" d="M0,51.94l3.64-.47c2.29-.24,3.56-1.58,3.56-3.95V9.33c0-2.29-1.26-3.64-3.56-3.95l-3.64-.47V.79h19.13l17.16,46.17L53.44.79h20.63v4.27l-3.79.47c-2.61.4-3.48,1.82-3.48,4.03v37.79c0,2.69,1.34,3.72,3.48,4.03l3.64.47v4.27h-24.19v-3.87l5.3-.71c1.26-.16,1.9-.87,1.9-2.13V10.83l-17.87,45.3h-8.3L13.28,10.99v38.42c0,1.26.71,1.98,1.9,2.13l5.38.71v3.87H0v-4.19Z"/>
      <path class="cls-1" d="M91.47,52.02l3.72-.47c2.29-.32,3.56-1.66,3.56-3.95V9.33c0-2.29-1.26-3.64-3.56-3.95l-3.72-.47V.79h24.59v3.87l-5.38.71c-1.26.16-1.9.95-1.9,2.21v41.74c0,1.26.63,2.06,1.9,2.21l5.38.71v3.87h-24.59v-4.11Z"/>
      <path class="cls-1" d="M133.77,5.06l-1.42-.16V.79h24.59v3.87l-5.53.47c-1.11.16-1.74.79-1.74,1.66,0,.24.08.55.16.87l13.52,38.66,13.76-38.66c.16-.32.16-.55.16-.79,0-.95-.63-1.58-1.74-1.66l-5.38-.55V.79h21.03v4.27l-1.58.16c-3.32.24-4.9,1.9-5.85,4.35l-17.79,46.56-9.09.79-17.31-47.35c-1.11-3.24-3.08-4.27-5.77-4.51Z"/>
      <path class="cls-1" d="M207.85,52.02l3.87-.55c2.21-.32,3.48-1.66,3.48-3.95V9.41c0-2.29-1.27-3.64-3.56-3.95l-4.27-.55V.79h25.54c14.47,0,21.9,6.25,21.9,15.97,0,7.27-3.79,12.41-11.7,14.71l9.41,15.02c1.98,3.24,4.35,5.53,8.46,5.53h.47v4.11h-8.77c-4.67,0-7.75-1.9-9.96-6.01l-9.25-17.31h-8.3v16.6c0,1.26.71,1.98,1.98,2.13l5.53.71v3.87h-24.82v-4.11ZM232.28,27.43c7.11,0,12.09-3.64,12.09-10.67s-4.98-10.75-12.57-10.75c-2.37,0-4.51.08-6.64.39v21.03h7.12Z"/>
      <path class="cls-1" d="M276.56,52.18l1.9-.16c2.29-.24,3.64-1.26,4.43-3.4L301.22.79l9.01-.79,18.82,48.62c.79,1.98,2.05,3,4.27,3.32l1.9.24v3.95h-23.16v-3.87l4.74-.47c1.26-.08,1.82-.63,1.82-1.5,0-.39-.16-.79-.32-1.26l-3.48-9.57h-20.95l-3.16,9.57c-.16.4-.24.79-.24,1.11,0,.95.55,1.5,1.74,1.66l4.9.47v3.87h-20.55v-3.95ZM313,34.15l-8.7-23.88-8.62,23.88h17.31Z"/>
    </g>
  </g>
</svg>